<mxfile host="app.diagrams.net" agent="Mozilla/5.0 (Windows NT 10.0; Win64; x64; rv:144.0) Gecko/20100101 Firefox/144.0" version="28.2.8">
  <diagram name="Page-1" id="uw5MU2y45UBsFBr0amzO">
    <mxGraphModel grid="1" page="1" gridSize="10" guides="1" tooltips="1" connect="1" arrows="1" fold="1" pageScale="1" pageWidth="850" pageHeight="1100" math="0" shadow="0">
      <root>
        <mxCell id="0" />
        <mxCell id="1" parent="0" />
        <mxCell id="9dBn1N-nVQfppc0bjSb9-2" value="Pool" style="swimlane;html=1;childLayout=stackLayout;resizeParent=1;resizeParentMax=0;startSize=20;horizontal=0;horizontalStack=1;whiteSpace=wrap;" vertex="1" parent="1">
          <mxGeometry x="210" y="230" width="2060" height="1700" as="geometry" />
        </mxCell>
        <mxCell id="9dBn1N-nVQfppc0bjSb9-3" value="Patient" style="swimlane;html=1;startSize=20;" vertex="1" parent="9dBn1N-nVQfppc0bjSb9-2">
          <mxGeometry x="20" width="620" height="1700" as="geometry" />
        </mxCell>
        <mxCell id="9dBn1N-nVQfppc0bjSb9-15" value="" style="edgeStyle=none;curved=1;rounded=0;orthogonalLoop=1;jettySize=auto;html=1;fontSize=12;startSize=8;endSize=8;" edge="1" parent="9dBn1N-nVQfppc0bjSb9-3" source="9dBn1N-nVQfppc0bjSb9-1" target="9dBn1N-nVQfppc0bjSb9-14">
          <mxGeometry relative="1" as="geometry" />
        </mxCell>
        <mxCell id="9dBn1N-nVQfppc0bjSb9-1" value="" style="shape=waypoint;sketch=0;size=6;pointerEvents=1;points=[];fillColor=none;resizable=0;rotatable=0;perimeter=centerPerimeter;snapToPoint=1;" vertex="1" parent="9dBn1N-nVQfppc0bjSb9-3">
          <mxGeometry x="300" y="80" width="20" height="20" as="geometry" />
        </mxCell>
        <mxCell id="9dBn1N-nVQfppc0bjSb9-18" value="" style="edgeStyle=none;curved=1;rounded=0;orthogonalLoop=1;jettySize=auto;html=1;fontSize=12;startSize=8;endSize=8;" edge="1" parent="9dBn1N-nVQfppc0bjSb9-3" source="9dBn1N-nVQfppc0bjSb9-14" target="9dBn1N-nVQfppc0bjSb9-1">
          <mxGeometry relative="1" as="geometry" />
        </mxCell>
        <mxCell id="9dBn1N-nVQfppc0bjSb9-14" value="Open Medalyze" style="rounded=1;whiteSpace=wrap;html=1;fillColor=none;sketch=0;pointerEvents=1;resizable=0;" vertex="1" parent="9dBn1N-nVQfppc0bjSb9-3">
          <mxGeometry x="250" y="150" width="120" height="60" as="geometry" />
        </mxCell>
        <mxCell id="9dBn1N-nVQfppc0bjSb9-19" value="Select doctor and preferred date/time" style="rounded=1;whiteSpace=wrap;html=1;fillColor=none;sketch=0;pointerEvents=1;resizable=0;" vertex="1" parent="9dBn1N-nVQfppc0bjSb9-3">
          <mxGeometry x="250" y="290" width="120" height="60" as="geometry" />
        </mxCell>
        <mxCell id="9dBn1N-nVQfppc0bjSb9-35" style="edgeStyle=none;curved=0;rounded=0;orthogonalLoop=1;jettySize=auto;html=1;entryX=0.75;entryY=1;entryDx=0;entryDy=0;fontSize=12;startSize=8;endSize=8;" edge="1" parent="9dBn1N-nVQfppc0bjSb9-3" source="9dBn1N-nVQfppc0bjSb9-30" target="9dBn1N-nVQfppc0bjSb9-19">
          <mxGeometry relative="1" as="geometry">
            <Array as="points">
              <mxPoint x="340" y="500" />
            </Array>
          </mxGeometry>
        </mxCell>
        <mxCell id="9dBn1N-nVQfppc0bjSb9-30" value="Show alternate time slots" style="whiteSpace=wrap;html=1;fillColor=none;rounded=1;sketch=0;pointerEvents=1;resizable=0;" vertex="1" parent="9dBn1N-nVQfppc0bjSb9-3">
          <mxGeometry x="660" y="470" width="120" height="60" as="geometry" />
        </mxCell>
        <mxCell id="9dBn1N-nVQfppc0bjSb9-69" style="edgeStyle=none;curved=0;rounded=0;orthogonalLoop=1;jettySize=auto;html=1;fontSize=12;startSize=8;endSize=8;entryX=0;entryY=0.5;entryDx=0;entryDy=0;" edge="1" parent="9dBn1N-nVQfppc0bjSb9-3" source="9dBn1N-nVQfppc0bjSb9-66" target="9dBn1N-nVQfppc0bjSb9-19">
          <mxGeometry relative="1" as="geometry">
            <mxPoint x="120" y="1150" as="targetPoint" />
            <Array as="points">
              <mxPoint x="125" y="1150" />
              <mxPoint x="125" y="320" />
            </Array>
          </mxGeometry>
        </mxCell>
        <mxCell id="9dBn1N-nVQfppc0bjSb9-71" value="Modify" style="edgeLabel;html=1;align=center;verticalAlign=middle;resizable=0;points=[];fontSize=12;" vertex="1" connectable="0" parent="9dBn1N-nVQfppc0bjSb9-69">
          <mxGeometry x="-0.8438" y="-1" relative="1" as="geometry">
            <mxPoint as="offset" />
          </mxGeometry>
        </mxCell>
        <mxCell id="9dBn1N-nVQfppc0bjSb9-76" value="" style="edgeStyle=none;curved=1;rounded=0;orthogonalLoop=1;jettySize=auto;html=1;fontSize=12;startSize=8;endSize=8;" edge="1" parent="9dBn1N-nVQfppc0bjSb9-3" source="9dBn1N-nVQfppc0bjSb9-66" target="9dBn1N-nVQfppc0bjSb9-75">
          <mxGeometry relative="1" as="geometry" />
        </mxCell>
        <mxCell id="9dBn1N-nVQfppc0bjSb9-77" value="Keep" style="edgeLabel;html=1;align=center;verticalAlign=middle;resizable=0;points=[];fontSize=12;" vertex="1" connectable="0" parent="9dBn1N-nVQfppc0bjSb9-76">
          <mxGeometry x="-0.1696" y="-3" relative="1" as="geometry">
            <mxPoint x="3" as="offset" />
          </mxGeometry>
        </mxCell>
        <mxCell id="9dBn1N-nVQfppc0bjSb9-66" value="Modify / Keep / Cancel" style="rhombus;whiteSpace=wrap;html=1;fillColor=none;rounded=1;sketch=0;pointerEvents=1;resizable=0;" vertex="1" parent="9dBn1N-nVQfppc0bjSb9-3">
          <mxGeometry x="270" y="1110" width="80" height="80" as="geometry" />
        </mxCell>
        <mxCell id="9dBn1N-nVQfppc0bjSb9-75" value="" style="shape=waypoint;sketch=0;size=6;pointerEvents=1;points=[];fillColor=none;resizable=0;rotatable=0;perimeter=centerPerimeter;snapToPoint=1;rounded=1;" vertex="1" parent="9dBn1N-nVQfppc0bjSb9-3">
          <mxGeometry x="300" y="1340" width="20" height="20" as="geometry" />
        </mxCell>
        <mxCell id="9dBn1N-nVQfppc0bjSb9-4" value="System" style="swimlane;html=1;startSize=20;" vertex="1" parent="9dBn1N-nVQfppc0bjSb9-2">
          <mxGeometry x="640" width="590" height="1700" as="geometry" />
        </mxCell>
        <mxCell id="9dBn1N-nVQfppc0bjSb9-16" value="Display available doctors and time slots" style="rounded=1;whiteSpace=wrap;html=1;fillColor=none;sketch=0;pointerEvents=1;resizable=0;" vertex="1" parent="9dBn1N-nVQfppc0bjSb9-4">
          <mxGeometry x="235" y="150" width="120" height="60" as="geometry" />
        </mxCell>
        <mxCell id="9dBn1N-nVQfppc0bjSb9-24" value="" style="edgeStyle=none;curved=1;rounded=0;orthogonalLoop=1;jettySize=auto;html=1;fontSize=12;startSize=8;endSize=8;" edge="1" parent="9dBn1N-nVQfppc0bjSb9-4" source="9dBn1N-nVQfppc0bjSb9-21" target="9dBn1N-nVQfppc0bjSb9-23">
          <mxGeometry relative="1" as="geometry" />
        </mxCell>
        <mxCell id="9dBn1N-nVQfppc0bjSb9-21" value="Check doctor&#39;s availability" style="rounded=1;whiteSpace=wrap;html=1;fillColor=none;sketch=0;pointerEvents=1;resizable=0;" vertex="1" parent="9dBn1N-nVQfppc0bjSb9-4">
          <mxGeometry x="225" y="290" width="120" height="60" as="geometry" />
        </mxCell>
        <mxCell id="9dBn1N-nVQfppc0bjSb9-39" value="" style="edgeStyle=none;curved=1;rounded=0;orthogonalLoop=1;jettySize=auto;html=1;fontSize=12;startSize=8;endSize=8;" edge="1" parent="9dBn1N-nVQfppc0bjSb9-4" source="9dBn1N-nVQfppc0bjSb9-23" target="9dBn1N-nVQfppc0bjSb9-38">
          <mxGeometry relative="1" as="geometry" />
        </mxCell>
        <mxCell id="9dBn1N-nVQfppc0bjSb9-40" value="Yes" style="edgeLabel;html=1;align=center;verticalAlign=middle;resizable=0;points=[];fontSize=12;" vertex="1" connectable="0" parent="9dBn1N-nVQfppc0bjSb9-39">
          <mxGeometry x="-0.08" y="3" relative="1" as="geometry">
            <mxPoint as="offset" />
          </mxGeometry>
        </mxCell>
        <mxCell id="9dBn1N-nVQfppc0bjSb9-23" value="Available?" style="rhombus;whiteSpace=wrap;html=1;fillColor=none;rounded=1;sketch=0;pointerEvents=1;resizable=0;" vertex="1" parent="9dBn1N-nVQfppc0bjSb9-4">
          <mxGeometry x="245" y="460" width="80" height="80" as="geometry" />
        </mxCell>
        <mxCell id="9dBn1N-nVQfppc0bjSb9-25" style="edgeStyle=none;curved=1;rounded=0;orthogonalLoop=1;jettySize=auto;html=1;entryX=0.5;entryY=0;entryDx=0;entryDy=0;fontSize=12;startSize=8;endSize=8;" edge="1" parent="9dBn1N-nVQfppc0bjSb9-4" source="9dBn1N-nVQfppc0bjSb9-23" target="9dBn1N-nVQfppc0bjSb9-23">
          <mxGeometry relative="1" as="geometry" />
        </mxCell>
        <mxCell id="9dBn1N-nVQfppc0bjSb9-38" value="Create a provisional appointment entry" style="whiteSpace=wrap;html=1;fillColor=none;rounded=1;sketch=0;pointerEvents=1;resizable=0;" vertex="1" parent="9dBn1N-nVQfppc0bjSb9-4">
          <mxGeometry x="425" y="470" width="120" height="60" as="geometry" />
        </mxCell>
        <mxCell id="9dBn1N-nVQfppc0bjSb9-47" value="Send new time Suggestion to patient" style="whiteSpace=wrap;html=1;fillColor=none;rounded=1;sketch=0;pointerEvents=1;resizable=0;" vertex="1" parent="9dBn1N-nVQfppc0bjSb9-4">
          <mxGeometry x="225" y="650" width="120" height="60" as="geometry" />
        </mxCell>
        <mxCell id="9dBn1N-nVQfppc0bjSb9-51" value="Send confirmation notification to patient" style="whiteSpace=wrap;html=1;fillColor=none;rounded=1;sketch=0;pointerEvents=1;resizable=0;" vertex="1" parent="9dBn1N-nVQfppc0bjSb9-4">
          <mxGeometry x="225" y="740" width="120" height="60" as="geometry" />
        </mxCell>
        <mxCell id="9dBn1N-nVQfppc0bjSb9-72" value="Notify doctor and admin" style="whiteSpace=wrap;html=1;fillColor=none;rounded=1;sketch=0;pointerEvents=1;resizable=0;" vertex="1" parent="9dBn1N-nVQfppc0bjSb9-4">
          <mxGeometry x="225" y="1120" width="120" height="60" as="geometry" />
        </mxCell>
        <mxCell id="9dBn1N-nVQfppc0bjSb9-5" value="Doctor" style="swimlane;html=1;startSize=20;" vertex="1" parent="9dBn1N-nVQfppc0bjSb9-2">
          <mxGeometry x="1230" width="450" height="1700" as="geometry" />
        </mxCell>
        <mxCell id="9dBn1N-nVQfppc0bjSb9-46" value="" style="edgeStyle=none;curved=1;rounded=0;orthogonalLoop=1;jettySize=auto;html=1;fontSize=12;startSize=8;endSize=8;" edge="1" parent="9dBn1N-nVQfppc0bjSb9-5" source="9dBn1N-nVQfppc0bjSb9-41" target="9dBn1N-nVQfppc0bjSb9-45">
          <mxGeometry relative="1" as="geometry" />
        </mxCell>
        <mxCell id="9dBn1N-nVQfppc0bjSb9-41" value="Receive appointment notification" style="whiteSpace=wrap;html=1;fillColor=none;rounded=1;sketch=0;pointerEvents=1;resizable=0;" vertex="1" parent="9dBn1N-nVQfppc0bjSb9-5">
          <mxGeometry x="165" y="470" width="120" height="60" as="geometry" />
        </mxCell>
        <mxCell id="9dBn1N-nVQfppc0bjSb9-45" value="Accept or Reschedule?" style="rhombus;whiteSpace=wrap;html=1;fillColor=none;rounded=1;sketch=0;pointerEvents=1;resizable=0;" vertex="1" parent="9dBn1N-nVQfppc0bjSb9-5">
          <mxGeometry x="185" y="640" width="80" height="80" as="geometry" />
        </mxCell>
        <mxCell id="9dBn1N-nVQfppc0bjSb9-58" value="Admin" style="swimlane;html=1;startSize=20;" vertex="1" parent="9dBn1N-nVQfppc0bjSb9-2">
          <mxGeometry x="1680" width="380" height="1700" as="geometry" />
        </mxCell>
        <mxCell id="9dBn1N-nVQfppc0bjSb9-59" value="Verify and log the confirmed appointment" style="whiteSpace=wrap;html=1;fillColor=none;rounded=1;sketch=0;pointerEvents=1;resizable=0;" vertex="1" parent="9dBn1N-nVQfppc0bjSb9-58">
          <mxGeometry x="130" y="820" width="120" height="60" as="geometry" />
        </mxCell>
        <mxCell id="9dBn1N-nVQfppc0bjSb9-17" value="" style="edgeStyle=none;curved=1;rounded=0;orthogonalLoop=1;jettySize=auto;html=1;fontSize=12;startSize=8;endSize=8;" edge="1" parent="9dBn1N-nVQfppc0bjSb9-2" source="9dBn1N-nVQfppc0bjSb9-14" target="9dBn1N-nVQfppc0bjSb9-16">
          <mxGeometry relative="1" as="geometry" />
        </mxCell>
        <mxCell id="9dBn1N-nVQfppc0bjSb9-20" value="" style="edgeStyle=none;curved=0;rounded=0;orthogonalLoop=1;jettySize=auto;html=1;fontSize=12;startSize=8;endSize=8;exitX=0.5;exitY=1;exitDx=0;exitDy=0;entryX=0.5;entryY=0;entryDx=0;entryDy=0;" edge="1" parent="9dBn1N-nVQfppc0bjSb9-2" source="9dBn1N-nVQfppc0bjSb9-16" target="9dBn1N-nVQfppc0bjSb9-19">
          <mxGeometry relative="1" as="geometry">
            <Array as="points">
              <mxPoint x="935" y="250" />
              <mxPoint x="330" y="250" />
            </Array>
          </mxGeometry>
        </mxCell>
        <mxCell id="9dBn1N-nVQfppc0bjSb9-22" value="" style="edgeStyle=none;curved=1;rounded=0;orthogonalLoop=1;jettySize=auto;html=1;fontSize=12;startSize=8;endSize=8;" edge="1" parent="9dBn1N-nVQfppc0bjSb9-2" source="9dBn1N-nVQfppc0bjSb9-19" target="9dBn1N-nVQfppc0bjSb9-21">
          <mxGeometry relative="1" as="geometry" />
        </mxCell>
        <mxCell id="9dBn1N-nVQfppc0bjSb9-34" style="edgeStyle=none;curved=1;rounded=0;orthogonalLoop=1;jettySize=auto;html=1;entryX=1;entryY=0.5;entryDx=0;entryDy=0;fontSize=12;startSize=8;endSize=8;" edge="1" parent="9dBn1N-nVQfppc0bjSb9-2" source="9dBn1N-nVQfppc0bjSb9-23" target="9dBn1N-nVQfppc0bjSb9-30">
          <mxGeometry relative="1" as="geometry" />
        </mxCell>
        <mxCell id="9dBn1N-nVQfppc0bjSb9-37" value="No" style="edgeLabel;html=1;align=center;verticalAlign=middle;resizable=0;points=[];fontSize=12;" vertex="1" connectable="0" parent="9dBn1N-nVQfppc0bjSb9-34">
          <mxGeometry x="0.0491" y="-1" relative="1" as="geometry">
            <mxPoint as="offset" />
          </mxGeometry>
        </mxCell>
        <mxCell id="9dBn1N-nVQfppc0bjSb9-42" value="" style="edgeStyle=none;curved=1;rounded=0;orthogonalLoop=1;jettySize=auto;html=1;fontSize=12;startSize=8;endSize=8;" edge="1" parent="9dBn1N-nVQfppc0bjSb9-2" source="9dBn1N-nVQfppc0bjSb9-38" target="9dBn1N-nVQfppc0bjSb9-41">
          <mxGeometry relative="1" as="geometry" />
        </mxCell>
        <mxCell id="9dBn1N-nVQfppc0bjSb9-48" value="" style="edgeStyle=none;curved=1;rounded=0;orthogonalLoop=1;jettySize=auto;html=1;fontSize=12;startSize=8;endSize=8;" edge="1" parent="9dBn1N-nVQfppc0bjSb9-2" source="9dBn1N-nVQfppc0bjSb9-45" target="9dBn1N-nVQfppc0bjSb9-47">
          <mxGeometry relative="1" as="geometry" />
        </mxCell>
        <mxCell id="9dBn1N-nVQfppc0bjSb9-50" value="Reschedule" style="edgeLabel;html=1;align=center;verticalAlign=middle;resizable=0;points=[];fontSize=12;" vertex="1" connectable="0" parent="9dBn1N-nVQfppc0bjSb9-48">
          <mxGeometry x="0.0093" y="-3" relative="1" as="geometry">
            <mxPoint x="149" y="3" as="offset" />
          </mxGeometry>
        </mxCell>
        <mxCell id="9dBn1N-nVQfppc0bjSb9-49" style="edgeStyle=none;curved=0;rounded=0;orthogonalLoop=1;jettySize=auto;html=1;entryX=0.25;entryY=1;entryDx=0;entryDy=0;fontSize=12;startSize=8;endSize=8;exitX=0;exitY=0.5;exitDx=0;exitDy=0;" edge="1" parent="9dBn1N-nVQfppc0bjSb9-2" source="9dBn1N-nVQfppc0bjSb9-47" target="9dBn1N-nVQfppc0bjSb9-19">
          <mxGeometry relative="1" as="geometry">
            <Array as="points">
              <mxPoint x="300" y="680" />
            </Array>
          </mxGeometry>
        </mxCell>
        <mxCell id="9dBn1N-nVQfppc0bjSb9-52" value="" style="edgeStyle=none;curved=0;rounded=0;orthogonalLoop=1;jettySize=auto;fontSize=12;startSize=8;endSize=8;exitX=0.5;exitY=1;exitDx=0;exitDy=0;align=center;html=1;convertToSvg=0;labelPosition=center;verticalLabelPosition=middle;verticalAlign=middle;" edge="1" parent="9dBn1N-nVQfppc0bjSb9-2" source="9dBn1N-nVQfppc0bjSb9-45" target="9dBn1N-nVQfppc0bjSb9-51">
          <mxGeometry relative="1" as="geometry">
            <Array as="points">
              <mxPoint x="1455" y="770" />
            </Array>
          </mxGeometry>
        </mxCell>
        <mxCell id="9dBn1N-nVQfppc0bjSb9-53" value="Accept" style="edgeLabel;html=1;align=center;verticalAlign=middle;resizable=0;points=[];fontSize=12;" vertex="1" connectable="0" parent="9dBn1N-nVQfppc0bjSb9-52">
          <mxGeometry x="0.0686" y="-3" relative="1" as="geometry">
            <mxPoint x="228" y="-27" as="offset" />
          </mxGeometry>
        </mxCell>
        <mxCell id="9dBn1N-nVQfppc0bjSb9-73" value="" style="edgeStyle=none;curved=1;rounded=0;orthogonalLoop=1;jettySize=auto;html=1;fontSize=12;startSize=8;endSize=8;" edge="1" parent="9dBn1N-nVQfppc0bjSb9-2" source="9dBn1N-nVQfppc0bjSb9-66" target="9dBn1N-nVQfppc0bjSb9-72">
          <mxGeometry relative="1" as="geometry" />
        </mxCell>
        <mxCell id="9dBn1N-nVQfppc0bjSb9-74" value="Cancel" style="edgeLabel;html=1;align=center;verticalAlign=middle;resizable=0;points=[];fontSize=12;" vertex="1" connectable="0" parent="9dBn1N-nVQfppc0bjSb9-73">
          <mxGeometry x="-0.2232" relative="1" as="geometry">
            <mxPoint x="-112" as="offset" />
          </mxGeometry>
        </mxCell>
        <mxCell id="9dBn1N-nVQfppc0bjSb9-78" style="edgeStyle=none;curved=0;rounded=0;orthogonalLoop=1;jettySize=auto;html=1;entryX=0.973;entryY=0.985;entryDx=0;entryDy=0;entryPerimeter=0;fontSize=12;startSize=8;endSize=8;" edge="1" parent="9dBn1N-nVQfppc0bjSb9-2" source="9dBn1N-nVQfppc0bjSb9-72" target="9dBn1N-nVQfppc0bjSb9-75">
          <mxGeometry relative="1" as="geometry">
            <Array as="points">
              <mxPoint x="925" y="1350" />
            </Array>
          </mxGeometry>
        </mxCell>
        <mxCell id="9dBn1N-nVQfppc0bjSb9-67" value="" style="edgeStyle=none;curved=0;rounded=0;orthogonalLoop=1;jettySize=auto;html=1;fontSize=12;startSize=8;endSize=8;entryX=0.5;entryY=0;entryDx=0;entryDy=0;" edge="1" parent="9dBn1N-nVQfppc0bjSb9-2" source="9dBn1N-nVQfppc0bjSb9-59" target="9dBn1N-nVQfppc0bjSb9-66">
          <mxGeometry relative="1" as="geometry">
            <Array as="points">
              <mxPoint x="1870" y="1020" />
              <mxPoint x="330" y="1020" />
            </Array>
          </mxGeometry>
        </mxCell>
        <mxCell id="9dBn1N-nVQfppc0bjSb9-60" value="" style="edgeStyle=none;curved=0;rounded=0;orthogonalLoop=1;jettySize=auto;html=1;fontSize=12;startSize=8;endSize=8;exitX=0.5;exitY=1;exitDx=0;exitDy=0;" edge="1" parent="9dBn1N-nVQfppc0bjSb9-2" source="9dBn1N-nVQfppc0bjSb9-51" target="9dBn1N-nVQfppc0bjSb9-59">
          <mxGeometry relative="1" as="geometry">
            <Array as="points">
              <mxPoint x="925" y="850" />
            </Array>
          </mxGeometry>
        </mxCell>
        <mxCell id="IwzecOR7vSF78mRhQWc0-3" value="&lt;strong data-end=&quot;80&quot; data-start=&quot;39&quot;&gt;Appointment Scheduling and Management&lt;/strong&gt;" style="text;strokeColor=none;fillColor=none;html=1;align=center;verticalAlign=middle;whiteSpace=wrap;rounded=0;fontSize=32;fontStyle=1" vertex="1" parent="1">
          <mxGeometry x="833" y="90" width="885" height="30" as="geometry" />
        </mxCell>
      </root>
    </mxGraphModel>
  </diagram>
</mxfile>
